<svg xmlns="http://www.w3.org/2000/svg" xmlns:xlink="http://www.w3.org/1999/xlink" id="Layer_1" width="128" height="128" x="0" y="0" enable-background="new 0 0 128 128" version="1.1" viewBox="0 0 128 128" xml:space="preserve"><polygon fill="#FFF" points="68.285 34 59.715 34 59.715 59.715 34 59.715 34 68.285 59.715 68.285 59.715 94 68.285 94 68.285 68.285 94 68.285 94 59.715 68.285 59.715"/><g><g><defs><rect id="SVGID_1_" width="128" height="128"/></defs><clipPath id="SVGID_2_"><use overflow="visible" xlink:href="#SVGID_1_"/></clipPath><path fill="#FFF" d="M64,8C33.076,8,8,33.074,8,64s25.076,56,56,56c30.926,0,56-25.074,56-56 S94.926,8,64,8 M64,112c-26.467,0-48-21.533-48-48c0-26.467,21.533-48,48-48c26.467,0,48,21.533,48,48 C112,90.467,90.467,112,64,112" clip-path="url(#SVGID_2_)"/></g></g></svg>